<?xml version="1.0" encoding="UTF-8"?>
<svg xmlns="http://www.w3.org/2000/svg" xmlns:xlink="http://www.w3.org/1999/xlink" version="1.1" viewBox="0 0 575 279">
  <defs>
    <style>
      .cls-1, .cls-2, .cls-3 {
        fill: none;
      }

      .cls-4 {
        fill: url(#linear-gradient-8);
      }

      .cls-5 {
        fill: url(#linear-gradient-7);
      }

      .cls-6 {
        fill: url(#linear-gradient-5);
      }

      .cls-7 {
        fill: url(#linear-gradient-6);
      }

      .cls-8 {
        fill: url(#linear-gradient-9);
      }

      .cls-9 {
        fill: url(#linear-gradient-4);
      }

      .cls-10 {
        fill: url(#linear-gradient-3);
      }

      .cls-11 {
        fill: url(#linear-gradient-2);
      }

      .cls-12 {
        fill: url(#linear-gradient);
      }

      .cls-2 {
        stroke: red;
      }

      .cls-2, .cls-3 {
        stroke-miterlimit: 10;
      }

      .cls-13 {
        fill: #fff;
      }

      .cls-14 {
        fill: #7ac943;
      }

      .cls-15 {
        fill: url(#linear-gradient-10);
      }

      .cls-16 {
        fill: url(#linear-gradient-11);
      }

      .cls-3 {
        stroke: blue;
        stroke-width: .2px;
      }
    </style>
    <linearGradient id="linear-gradient" x1="227.5" y1="251.5" x2="227.5" y2="279.5" gradientUnits="userSpaceOnUse">
      <stop offset="0" stop-color="#7ac943"/>
      <stop offset=".2" stop-color="#75c542"/>
      <stop offset=".4" stop-color="#69bb41"/>
      <stop offset=".5" stop-color="#54ab3f"/>
      <stop offset=".7" stop-color="#37943c"/>
      <stop offset=".9" stop-color="#127638"/>
      <stop offset="1" stop-color="#006837"/>
    </linearGradient>
    <linearGradient id="linear-gradient-2" x1="24" y1="216.5" x2="24" y2="279.5" gradientUnits="userSpaceOnUse">
      <stop offset="0" stop-color="#4a91d2"/>
      <stop offset="1" stop-color="#095274"/>
    </linearGradient>
    <linearGradient id="linear-gradient-3" x1="80" x2="80" xlink:href="#linear-gradient-2"/>
    <linearGradient id="linear-gradient-4" x1="143" x2="143" xlink:href="#linear-gradient-2"/>
    <linearGradient id="linear-gradient-5" x1="360" x2="360" xlink:href="#linear-gradient-2"/>
    <linearGradient id="linear-gradient-6" x1="413.5" x2="413.5" xlink:href="#linear-gradient-2"/>
    <linearGradient id="linear-gradient-7" x1="482" y1="243.5" x2="482" xlink:href="#linear-gradient-2"/>
    <linearGradient id="linear-gradient-8" x1="228" y1="216.5" x2="228" xlink:href="#linear-gradient-2"/>
    <linearGradient id="linear-gradient-9" x1="305.1" y1="216.5" x2="305.1" xlink:href="#linear-gradient-2"/>
    <linearGradient id="linear-gradient-10" x1="549.2" x2="549.2" xlink:href="#linear-gradient-2"/>
    <linearGradient id="linear-gradient-11" x1="285.5" y1="0" x2="285.5" y2="173" gradientUnits="userSpaceOnUse">
      <stop offset="0" stop-color="#4a91d2"/>
      <stop offset="1" stop-color="#095274"/>
    </linearGradient>
  </defs>
  <!-- Generator: Adobe Illustrator 28.6.0, SVG Export Plug-In . SVG Version: 1.2.0 Build 709)  -->
  <g>
    <g id="Layer_1">
      <image width="2442" height="1265" transform="translate(1 -116) scale(.2)" xlink:href="KimaritecLogo-1.png"/>
      <path class="cls-13" d="M357.1,164.9c-.6,0-.9,0-1.3,0-20.8,0-41.6,0-62.4,0-.9,0-1.4-.3-1.8-1-2.2-4.3-4.5-8.5-6.7-12.8-3.9-7.4-7.7-14.7-11.6-22.1-2.5-4.9-5.1-9.7-7.6-14.6-.3-.6-.3-1,.2-1.5,3.7-3.7,7.3-7.5,11-11.2,2.8-2.8,5.6-5.6,8.3-8.5.7-.7,1-.9,1.8,0,7.5,7.6,15,15.2,22.4,22.8,5.8,5.9,11.6,11.8,17.4,17.7,6.1,6.2,12.2,12.5,18.3,18.7,3.8,3.9,7.6,7.7,11.4,11.6.2.2.3.4.6.8Z"/>
      <path class="cls-2" d="M615.5,216.5"/>
      <path class="cls-2" d="M615.5,279.5"/>
      <line class="cls-1" x1="137" y1="248" x2="148" y2="248"/>
      <rect class="cls-14" x="477.5" y="199.5" width="9" height="43" transform="translate(703 -261) rotate(90)"/>
      <polygon class="cls-12" points="227.4 251.5 222.5 263.5 215.5 279.5 239.5 279.5 227.4 251.5"/>
      <path class="cls-2" d="M215.5,263.5"/>
      <path class="cls-2" d="M222.5,263.5"/>
      <path class="cls-2" d="M237.5,263.5"/>
      <path class="cls-2" d="M232.5,263.5"/>
      <path class="cls-2" d="M196.5,308.5"/>
      <path class="cls-2" d="M196.5,279.5"/>
      <path class="cls-2" d="M206.5,304.5"/>
      <path class="cls-2" d="M206.5,279.5"/>
      <path class="cls-2" d="M249.5,303.5"/>
      <path class="cls-2" d="M249.5,279.5"/>
      <path class="cls-2" d="M259.5,305.5"/>
      <path class="cls-2" d="M259.5,279.5"/>
      <g>
        <polygon class="cls-11" points="37.5 279.5 48.5 279.5 20.7 245.4 45.5 216.5 34.5 216.5 8.5 246.1 8.5 216.5 -.5 216.5 -.5 279.5 8.5 279.5 8.5 259.7 15.2 251.9 37.5 279.5"/>
        <rect class="cls-10" x="75.5" y="216.5" width="9" height="63"/>
        <polygon class="cls-9" points="164.5 216.5 161.5 216.5 142.9 241.3 124.5 216.5 121.5 216.5 112.5 216.5 112.5 279.5 121.5 279.5 121.5 228.2 142.5 255.5 164.5 227.8 164.5 279.5 173.5 279.5 173.5 216.5 164.5 216.5"/>
        <rect class="cls-6" x="355.5" y="216.5" width="9" height="63"/>
        <polygon class="cls-7" points="438.5 216.5 388.5 216.5 388.5 225.5 409.5 225.5 409.5 279.5 418.5 279.5 418.5 225.5 438.5 225.5 438.5 216.5"/>
        <polygon class="cls-5" points="503.5 252.5 503.5 243.5 469.5 243.5 460.5 243.5 460.5 252.5 460.5 270.5 460.5 279.5 469.5 279.5 503.5 279.5 503.5 270.5 469.5 270.5 469.5 252.5 503.5 252.5"/>
        <polygon class="cls-4" points="259.5 279.5 232.8 218 232.2 216.5 227.5 216.5 223.5 216.5 222.9 217.9 222.9 217.9 222.9 217.9 196.5 279.5 206.5 279.5 227.9 229.4 249.5 279.5 259.5 279.5"/>
        <path class="cls-8" d="M319.4,279.5h10.3l-16.6-24.1c4.8-.5,9-2.6,12-6.2,3-3.5,4.6-8.2,4.6-13.2,0-9.6-6.3-19.2-18.2-19.5h0s-27,0-27,0h0s-4,0-4,0v63h9v-24h13.6l16.4,24ZM289.5,225.5h21.5c7.7,0,9.7,6.6,9.7,10.5s-2,10.5-9.7,10.5h-21.5v-21Z"/>
        <path class="cls-15" d="M555,225.5h19.5v-9h-24v.3c-7.8.9-14.3,4.2-19.1,9.7-4.8,5.5-7.4,12.9-7.4,20.9s2.7,15.8,7.6,21.6c4.8,5.7,11.4,9.2,18.9,10.2v.3h24v-9h-19.5c-13.6,0-20.7-11.7-20.7-23.2s1.9-11.5,5.3-15.4c3.7-4.2,8.9-6.4,15.4-6.4Z"/>
      </g>
      <path class="cls-16" d="M367,165.5l-75.8-78.3L372,6l-5-5.3-111.7,49.4L206.9,0h-7.9C199,0,199,173,199,173h7l54-54.4,28.4,54.4h78.5v-7.5ZM354.2,14l-67.8,68.2-25.9-26.8,93.7-41.4ZM281.4,87.1l-19.6,19.7-45.5-87,65.1,67.3ZM206,163V15.2l50.6,96.9-50.6,50.9ZM265.2,113.4l21.1-21.2,70.5,72.8h-64.5l-27-51.6Z"/>
      <line class="cls-1" x1="199" x2="211"/>
      <line class="cls-1" x1="207" x2="207" y2="-3"/>
      <line class="cls-1" x1="202" x2="202" y2="-3"/>
      <line class="cls-1" x1="199" y1="172" x2="199" y2="178"/>
      <path class="cls-3" d="M184,173"/>
      <path class="cls-3" d="M375,173"/>
      <line class="cls-1" x1="282" y1="160" x2="290" y2="175"/>
      <path class="cls-3" d="M372,6"/>
      <path class="cls-3" d="M367,11"/>
      <path class="cls-3" d="M372,6"/>
      <path class="cls-3" d="M367,1"/>
    </g>
  </g>
</svg>