<?xml version="1.0" encoding="UTF-8"?>
<svg xmlns="http://www.w3.org/2000/svg" xmlns:xlink="http://www.w3.org/1999/xlink" version="1.1" viewBox="0 0 449 45">
  <defs>
    <style>
      .cls-1, .cls-2, .cls-3 {
        fill: none;
      }

      .cls-4 {
        fill: url(#linear-gradient-8);
      }

      .cls-5 {
        fill: url(#linear-gradient-7);
      }

      .cls-6 {
        fill: url(#linear-gradient-5);
      }

      .cls-7 {
        fill: url(#linear-gradient-6);
      }

      .cls-8 {
        fill: url(#linear-gradient-9);
      }

      .cls-9 {
        fill: url(#linear-gradient-4);
      }

      .cls-10 {
        fill: url(#linear-gradient-3);
      }

      .cls-11 {
        fill: url(#linear-gradient-2);
      }

      .cls-12 {
        fill: url(#linear-gradient);
      }

      .cls-2 {
        stroke: red;
      }

      .cls-2, .cls-3 {
        stroke-miterlimit: 10;
      }

      .cls-13 {
        fill: #7ac943;
      }

      .cls-14 {
        fill: url(#linear-gradient-10);
      }

      .cls-15 {
        fill: url(#linear-gradient-11);
      }

      .cls-3 {
        stroke: blue;
        stroke-width: .2px;
      }
    </style>
    <linearGradient id="linear-gradient" x1="211.9" y1="25.1" x2="211.9" y2="43.9" gradientUnits="userSpaceOnUse">
      <stop offset="0" stop-color="#7ac943"/>
      <stop offset=".2" stop-color="#75c542"/>
      <stop offset=".4" stop-color="#69bb41"/>
      <stop offset=".5" stop-color="#54ab3f"/>
      <stop offset=".7" stop-color="#37943c"/>
      <stop offset=".9" stop-color="#127638"/>
      <stop offset="1" stop-color="#006837"/>
    </linearGradient>
    <linearGradient id="linear-gradient-2" x1="72.7" y1=".8" x2="72.7" y2="43.8" gradientUnits="userSpaceOnUse">
      <stop offset="0" stop-color="#4a91d2"/>
      <stop offset="1" stop-color="#095274"/>
    </linearGradient>
    <linearGradient id="linear-gradient-3" x1="111" x2="111" xlink:href="#linear-gradient-2"/>
    <linearGradient id="linear-gradient-4" x1="154.1" x2="154.1" xlink:href="#linear-gradient-2"/>
    <linearGradient id="linear-gradient-5" x1="302.4" x2="302.4" xlink:href="#linear-gradient-2"/>
    <linearGradient id="linear-gradient-6" x1="339" x2="339" xlink:href="#linear-gradient-2"/>
    <linearGradient id="linear-gradient-7" x1="385.8" y1="19.2" x2="385.8" xlink:href="#linear-gradient-2"/>
    <linearGradient id="linear-gradient-8" x1="212.2" y1=".8" x2="212.2" xlink:href="#linear-gradient-2"/>
    <linearGradient id="linear-gradient-9" x1="264.9" y1=".8" x2="264.9" xlink:href="#linear-gradient-2"/>
    <linearGradient id="linear-gradient-10" x1="431.7" x2="431.7" xlink:href="#linear-gradient-2"/>
    <linearGradient id="linear-gradient-11" x1="23" y1="-1" x2="23" y2="45" gradientUnits="userSpaceOnUse">
      <stop offset="0" stop-color="#4a91d2"/>
      <stop offset="1" stop-color="#095274"/>
    </linearGradient>
  </defs>
  <!-- Generator: Adobe Illustrator 28.6.0, SVG Export Plug-In . SVG Version: 1.2.0 Build 709)  -->
  <g>
    <g id="Layer_1">
      <image width="2442" height="1265" transform="translate(-41 -144) scale(.2)" xlink:href="KimaritecLogoHeader-1.png"/>
      <line class="cls-1" x1="155" y1="22.7" x2="162.4" y2="22.7"/>
      <rect class="cls-13" x="384.1" y="-9.9" width="6.1" height="28.9" transform="translate(391.7 -382.6) rotate(90)"/>
      <polygon class="cls-12" points="211.9 25.1 208.6 33.1 203.8 43.9 220 43.9 211.9 25.1"/>
      <path class="cls-2" d="M207.8,33.1"/>
      <path class="cls-2" d="M212.6,33.1"/>
      <path class="cls-2" d="M222.6,33.1"/>
      <path class="cls-2" d="M219.3,33.1"/>
      <path class="cls-2" d="M195.1,63.4"/>
      <path class="cls-2" d="M195.1,43.9"/>
      <path class="cls-2" d="M201.8,60.7"/>
      <path class="cls-2" d="M201.8,43.9"/>
      <path class="cls-2" d="M230.7,60"/>
      <path class="cls-2" d="M230.7,43.9"/>
      <path class="cls-2" d="M237.5,61.4"/>
      <path class="cls-2" d="M237.5,43.9"/>
      <g>
        <polygon class="cls-11" points="82 43.8 89.5 43.8 70.5 20.6 87.4 .8 79.9 .8 62.2 21 62.2 .8 56 .8 56 43.8 62.2 43.8 62.2 30.3 66.7 24.9 82 43.8"/>
        <rect class="cls-10" x="107.9" y=".8" width="6.2" height="43.1"/>
        <polygon class="cls-9" points="168.8 .8 166.7 .8 154 17.7 141.4 .8 139.4 .8 133.2 .8 133.2 43.8 139.4 43.8 139.4 8.8 153.7 27.4 168.8 8.5 168.8 43.8 174.9 43.8 174.9 .8 168.8 .8"/>
        <rect class="cls-6" x="299.3" y=".8" width="6.2" height="43.1"/>
        <polygon class="cls-7" points="356 .8 321.9 .8 321.9 6.9 336.2 6.9 336.2 43.8 342.4 43.8 342.4 6.9 356 6.9 356 .8"/>
        <polygon class="cls-5" points="400.5 25.4 400.5 19.2 377.2 19.2 371.1 19.2 371.1 25.4 371.1 37.7 371.1 43.8 377.2 43.8 400.5 43.8 400.5 37.7 377.2 37.7 377.2 25.4 400.5 25.4"/>
        <polygon class="cls-4" points="233.7 43.8 215.5 1.8 215 .8 211.8 .8 209.1 .8 208.7 1.7 208.7 1.7 208.7 1.7 190.6 43.8 197.5 43.8 212.1 9.6 226.9 43.8 233.7 43.8"/>
        <path class="cls-8" d="M274.7,43.8h7.1l-11.4-16.5c3.3-.3,6.1-1.8,8.2-4.2,2-2.4,3.2-5.6,3.2-9,0-6.5-4.3-13.1-12.5-13.3h0s-18.5,0-18.5,0h0s-2.7,0-2.7,0v43.1h6.2v-16.4h9.3l11.2,16.4ZM254.2,6.9h14.7c5.3,0,6.7,4.5,6.7,7.2s-1.4,7.2-6.7,7.2h-14.7V6.9Z"/>
        <path class="cls-14" d="M435.7,6.9h13.3V.8h-16.4v.2c-5.3.6-9.8,2.9-13.1,6.6-3.3,3.8-5.1,8.8-5.1,14.3s1.8,10.8,5.2,14.8c3.3,3.9,7.8,6.3,12.9,7v.2h16.4v-6.2h-13.3c-9.3,0-14.1-8-14.1-15.8s1.3-7.8,3.6-10.5c2.5-2.9,6.1-4.4,10.5-4.4Z"/>
      </g>
      <path class="cls-15" d="M44.7,43l-20.1-20.8L46,.6l-1.3-1.4L15,12.3,2.1-1H0s0,46,0,46h1.9l14.4-14.5,7.6,14.5h20.9v-2ZM41.3,2.7l-18,18.1-6.9-7.1L41.3,2.7ZM21.9,22.2l-5.2,5.2L4.6,4.3l17.3,17.9ZM1.9,42.3V3l13.5,25.8L1.9,42.3ZM17.6,29.1l5.6-5.6,18.7,19.4h-17.2l-7.2-13.7Z"/>
      <line class="cls-1" x1="157" y1="-28" x2="169" y2="-28"/>
      <line class="cls-1" x1="165" y1="-28" x2="165" y2="-31"/>
      <line class="cls-1" x1="160" y1="-28" x2="160" y2="-31"/>
      <path class="cls-3" d="M330-22"/>
      <path class="cls-3" d="M325-17"/>
      <path class="cls-3" d="M330-22"/>
      <path class="cls-3" d="M325-27"/>
    </g>
  </g>
</svg>