<svg xmlns="http://www.w3.org/2000/svg" viewBox="0 0 59.13 59.13">
    <defs>
        <style>.cls-1{fill:#fff;}.cls-2{fill:#00457d;}</style>
    </defs>
    <rect class="cls-1" width="58.81" height="58.81"/>
    <path class="cls-2"
          d="M126.19,47.16s0,15.06,0,15.75c0,1.11,1.36,6.2,8.39,6.2S142.75,64,142.75,63v-9l-5.39-5.65V62.37c0,.28,0,1.71-2.78,1.71s-2.91-1.41-2.91-1.75V47.17Z"
          transform="translate(-100.34 -41.3)"/>
    <polygon class="cls-2"
             points="37.56 5.86 42.71 11.18 46.42 11.18 46.42 27.48 52.04 27.48 52.04 11.18 56.38 11.18 56.38 5.86 37.56 5.86"/>
    <path class="cls-2"
          d="M123.35,64.14l4.6,4.67h-6.2l-10.1-10.52h6l1.6,1.63a4.89,4.89,0,0,0,.38-2.05,5.8,5.8,0,0,0-5.85-5.7,5.74,5.74,0,0,0,.11,11.47,3.39,3.39,0,0,0,1-.11L119,68a10.18,10.18,0,0,1-5.17,1.25A11.15,11.15,0,0,1,102.91,58a11.12,11.12,0,0,1,22.23.23,11.66,11.66,0,0,1-1.79,5.89"
          transform="translate(-100.34 -41.3)"/>
</svg>